# Blender v2.90.1 OBJ File: ''
# www.blender.org
mtllib Blades.mtl
o Blades
v -0.040924 -0.423709 -1.034828
v -0.040924 0.469791 -1.404926
v 0.852476 0.469791 -1.034828
v 0.590776 -0.423709 -0.773129
v -0.672724 -0.423709 -0.773129
v -0.934424 0.469791 -1.034828
v -0.934424 -0.423709 -0.141327
v -1.304524 0.469791 -0.141327
v -0.672724 -0.423709 0.490471
v -0.934424 0.469791 0.752171
v -0.040924 -0.423709 0.752171
v -0.040924 0.469791 1.122272
v 0.590776 -0.423709 0.490471
v 0.852476 0.469791 0.752171
v 0.852476 -0.423709 -0.141327
v 1.222576 0.469791 -0.141327
v -0.040924 -0.793809 -0.141327
v -0.040924 1.420191 -1.404926
v 0.852476 1.420191 -1.034828
v -0.934424 1.420191 -1.034828
v -1.304524 1.420190 -0.141327
v -0.934424 1.420190 0.752171
v -0.040924 1.420190 1.122273
v 0.852476 1.420190 0.752171
v 1.222576 1.420190 -0.141327
v -0.174624 0.441591 2.601372
v -0.167724 0.441590 6.439671
v 0.077676 0.441590 6.439671
v 0.084576 0.441591 2.601372
v -0.406024 0.014091 2.601372
v -0.224824 -0.096910 6.439671
v -0.167724 -0.635410 6.439671
v -0.174624 -0.413509 2.601372
v 0.084576 -0.413509 2.601372
v 0.077676 -0.635410 6.439671
v 0.315976 0.014091 2.601372
v 0.191276 -0.154610 6.349274
v -0.197024 0.441591 -0.387829
v 0.106976 0.441591 -0.387829
v -0.471224 0.014091 -0.387829
v -0.197024 -0.413509 -0.387829
v 0.106976 -0.413509 -0.387829
v 0.381176 0.014091 -0.387829
v -0.224824 -0.329711 9.388172
v -0.167724 0.441589 9.388172
v 0.077676 0.441589 9.388172
v 0.191276 -0.387410 9.297771
v -0.167724 -1.101010 9.388172
v 0.077676 -1.101010 9.388172
v -0.022724 0.267787 26.944374
v 0.077276 0.402886 26.657272
v -0.167524 0.402886 26.668472
v -0.065924 0.270086 26.943375
v 0.050776 -0.037414 26.943169
v 0.191576 -0.049414 26.579170
v -0.225024 0.003086 26.656670
v -0.120324 -0.006413 26.943474
v 0.077276 -0.396813 26.656273
v -0.007224 -0.255114 26.944672
v -0.069124 -0.258714 26.943375
v -0.167524 -0.396213 26.670769
v -0.167624 0.419988 19.061172
v 0.077476 0.419988 19.054871
v -0.167624 -0.706512 19.062370
v 0.077376 -0.706813 19.054276
v -0.224924 -0.143412 19.054474
v 0.191476 -0.198212 18.971375
v -1.853324 0.466891 -2.183029
v -4.572224 0.466892 -4.892227
v -4.745724 0.466892 -4.718727
v -2.036524 0.466891 -1.999729
v -1.689624 0.039392 -2.346626
v -4.531824 -0.071608 -4.932629
v -4.572224 -0.610108 -4.892227
v -1.853324 -0.388208 -2.183029
v -2.036524 -0.388208 -1.999729
v -4.745724 -0.610108 -4.718727
v -2.200224 0.039391 -1.836128
v -4.762124 -0.129308 -4.574528
v 0.276276 0.466891 -0.085129
v 0.061276 0.466891 0.129772
v 0.470176 0.039391 -0.279026
v 0.276276 -0.388209 -0.085129
v 0.061276 -0.388209 0.129772
v -0.132524 0.039391 0.323673
v -6.616724 -0.304408 -7.017529
v -6.657125 0.466892 -6.977127
v -6.830625 0.466892 -6.803627
v -6.847024 -0.362108 -6.659428
v -6.657125 -1.075708 -6.977127
v -6.830625 -1.075708 -6.803627
v -19.173824 0.293094 -19.288828
v -19.041525 0.428194 -19.015028
v -18.876324 0.428194 -19.196028
v -19.142525 0.295394 -19.318628
v -19.224825 -0.012206 -19.235928
v -19.067123 -0.024106 -18.878927
v -18.827324 0.028394 -19.228327
v -19.104124 0.018894 -19.357227
v -19.040825 -0.371506 -19.014328
v -19.184925 -0.229906 -19.277927
v -19.140224 -0.233406 -19.320827
v -18.877924 -0.370906 -19.197628
v -14.698324 0.441393 -15.018028
v -17.080324 0.433894 -17.400127
v -17.246725 0.433894 -17.220127
v -14.866323 0.441493 -14.839626
v -17.246124 -0.475006 -17.219627
v -17.081724 -0.474506 -17.401428
v -14.699324 -0.611907 -15.019127
v -14.865824 -0.612306 -14.839230
v -14.652224 -0.085407 -15.053127
v -17.032524 -0.020506 -17.433529
v -17.270924 -0.073806 -17.082928
v -14.888723 -0.139706 -14.700729
v 2.027576 0.463291 -1.999729
v 4.736776 0.463292 -4.718727
v 4.563276 0.463292 -4.892227
v 1.844376 0.463291 -2.183029
v 2.191176 0.035691 -1.836128
v 4.777176 -0.075208 -4.678329
v 4.736776 -0.613708 -4.718727
v 2.027576 -0.391809 -1.999729
v 1.844376 -0.391808 -2.183029
v 4.563276 -0.613708 -4.892227
v 1.680676 0.035691 -2.346626
v 4.419076 -0.132908 -4.908627
v -0.070324 0.463291 0.129772
v -0.285224 0.463291 -0.085129
v 0.123576 0.035691 0.323673
v -0.070324 -0.391809 0.129772
v -0.285224 -0.391809 -0.085129
v -0.479124 0.035691 -0.279026
v 6.862076 -0.308008 -6.763229
v 6.821676 0.463292 -6.803627
v 6.648176 0.463292 -6.977127
v 6.503976 -0.365708 -6.993526
v 6.821676 -1.079308 -6.803627
v 6.648176 -1.079308 -6.977127
v 19.133375 0.289494 -19.320229
v 18.859575 0.424594 -19.188028
v 19.040575 0.424594 -19.022827
v 19.163176 0.291794 -19.288927
v 19.080475 -0.015806 -19.371328
v 18.723476 -0.027706 -19.213528
v 19.072876 0.024794 -18.973728
v 19.201777 0.015194 -19.250628
v 18.858976 -0.375106 -19.187227
v 19.122477 -0.233506 -19.331429
v 19.165377 -0.237006 -19.286728
v 19.042175 -0.374606 -19.024427
v 15.009776 0.437393 -14.991928
v 17.631077 0.429094 -17.613228
v 17.450876 0.429094 -17.779428
v 14.831276 0.437393 -15.159828
v 17.450377 -0.456406 -17.778728
v 17.632477 -0.455806 -17.614628
v 15.010876 -0.607007 -14.993027
v 14.830875 -0.607406 -15.159328
v 15.044776 -0.085007 -14.945728
v 17.664276 -0.013606 -17.565228
v 17.313877 -0.066706 -17.803928
v 14.692475 -0.139207 -15.182426
v -13.541424 0.445093 -13.861229
v -13.496124 -0.116907 -13.897129
v -13.542324 -0.678607 -13.862129
v -13.709824 -0.679007 -13.683128
v -13.731825 -0.171707 -13.543827
v -13.710224 0.445093 -13.683529
v 13.854675 0.440993 -13.836826
v 13.890475 -0.116507 -13.791428
v 13.855676 -0.673707 -13.837727
v 13.676476 -0.674006 -14.005127
v 13.537375 -0.171206 -14.027229
v 13.676876 0.440993 -14.005527
v -0.167624 0.416887 20.406876
v 0.077476 0.416988 20.399673
v 0.191476 -0.171912 20.317169
v 0.077376 -0.652013 20.399071
v -0.167624 -0.651612 20.408272
v -0.224924 -0.117513 20.399269
v 0.191576 -0.098313 24.078476
v 0.077376 0.408487 24.158371
v 0.077276 -0.498713 24.157570
v -0.167524 -0.498213 24.169868
v -0.225024 -0.045113 24.157875
v -0.167524 0.408487 24.167969
vt 0.724700 0.288400
vt 0.723300 0.273200
vt 0.749400 0.284500
vt 0.739500 0.296300
vt 0.708700 0.293400
vt 0.697000 0.283600
vt 0.700900 0.308200
vt 0.685600 0.309600
vt 0.705800 0.324200
vt 0.696000 0.335900
vt 0.720600 0.332000
vt 0.722000 0.347300
vt 0.736600 0.327100
vt 0.748400 0.336900
vt 0.744500 0.312300
vt 0.759700 0.310900
vt 0.722700 0.310200
vt 0.721700 0.257300
vt 0.759300 0.272100
vt 0.684600 0.273600
vt 0.669800 0.311200
vt 0.686000 0.348300
vt 0.723700 0.363100
vt 0.760800 0.346900
vt 0.775600 0.309200
vt 0.700000 0.441300
vt 0.701500 0.532600
vt 0.695700 0.532600
vt 0.693800 0.441500
vt 0.652900 0.441500
vt 0.650100 0.532500
vt 0.637300 0.531100
vt 0.641300 0.441300
vt 0.663200 0.534000
vt 0.664400 0.441900
vt 0.670600 0.441800
vt 0.669200 0.534100
vt 0.682200 0.441500
vt 0.681000 0.531000
vt 0.702200 0.370800
vt 0.695000 0.370600
vt 0.651800 0.370400
vt 0.663800 0.370400
vt 0.671000 0.370300
vt 0.683000 0.370300
vt 0.639700 0.370600
vt 0.537000 0.437800
vt 0.535000 0.531000
vt 0.528300 0.531200
vt 0.530100 0.437300
vt 0.548500 0.438800
vt 0.548000 0.530700
vt 0.561100 0.531400
vt 0.559900 0.439400
vt 0.566600 0.439500
vt 0.567600 0.531200
vt 0.578100 0.439300
vt 0.579300 0.527600
vt 0.538800 0.367100
vt 0.531000 0.367100
vt 0.550700 0.367300
vt 0.562400 0.367500
vt 0.569800 0.367700
vt 0.581700 0.368100
vt 0.545400 0.600200
vt 0.527200 0.599600
vt 0.521000 0.599600
vt 0.586900 0.599200
vt 0.594300 0.528500
vt 0.606700 0.601600
vt 0.563700 0.600900
vt 0.569800 0.601000
vt 0.594000 0.368600
vt 0.590100 0.439400
vt 0.797300 0.441700
vt 0.799800 0.531800
vt 0.794000 0.531800
vt 0.791200 0.442000
vt 0.750800 0.442300
vt 0.749000 0.532200
vt 0.736300 0.531000
vt 0.739400 0.442300
vt 0.761900 0.533500
vt 0.762300 0.442600
vt 0.768400 0.442500
vt 0.767800 0.533500
vt 0.779800 0.442100
vt 0.779500 0.530500
vt 0.798800 0.372100
vt 0.791700 0.372000
vt 0.749100 0.372200
vt 0.760900 0.372100
vt 0.768000 0.372000
vt 0.779800 0.371800
vt 0.741400 0.601200
vt 0.723300 0.600600
vt 0.808100 0.601700
vt 0.802300 0.601700
vt 0.782700 0.599900
vt 0.759700 0.601800
vt 0.765500 0.602100
vt 0.737200 0.372500
vt 0.709300 0.603500
vt 0.696900 0.822500
vt 0.691600 0.820800
vt 0.703400 0.603400
vt 0.660200 0.815700
vt 0.660300 0.603100
vt 0.666200 0.603500
vt 0.665900 0.815900
vt 0.641700 0.602300
vt 0.647800 0.818000
vt 0.637100 0.822600
vt 0.623400 0.601600
vt 0.677800 0.815800
vt 0.683600 0.601500
vt 0.535300 0.855700
vt 0.537700 0.931500
vt 0.533400 0.932900
vt 0.530600 0.856800
vt 0.559600 0.926000
vt 0.554300 0.925700
vt 0.556400 0.851400
vt 0.561900 0.851700
vt 0.545200 0.853200
vt 0.545100 0.928100
vt 0.566700 0.927400
vt 0.571300 0.852400
vt 0.581000 0.856900
vt 0.573400 0.932500
vt 0.796100 0.860600
vt 0.792200 0.943500
vt 0.787300 0.940900
vt 0.790900 0.858600
vt 0.768400 0.933500
vt 0.763000 0.933400
vt 0.762200 0.853000
vt 0.767700 0.853100
vt 0.742100 0.861600
vt 0.751100 0.856000
vt 0.754200 0.937500
vt 0.748200 0.945200
vt 0.777100 0.934300
vt 0.778400 0.853300
vt 0.545200 0.816800
vt 0.534100 0.818800
vt 0.557500 0.815400
vt 0.563000 0.815600
vt 0.573500 0.816000
vt 0.584700 0.820100
vt 0.529200 0.819800
vt 0.749700 0.820000
vt 0.739500 0.824800
vt 0.761800 0.817600
vt 0.767400 0.817700
vt 0.779000 0.817500
vt 0.792500 0.822400
vt 0.797800 0.824100
vt 0.674800 0.929000
vt 0.677000 0.845600
vt 0.690000 0.851000
vt 0.685400 0.935500
vt 0.665800 0.845500
vt 0.665700 0.928100
vt 0.660200 0.928000
vt 0.660200 0.845300
vt 0.651000 0.931900
vt 0.648600 0.848000
vt 0.639000 0.853400
vt 0.644400 0.939300
vt 0.695200 0.853000
vt 0.690400 0.938200
vt 0.668200 0.995400
vt 0.682300 0.991700
vt 0.687200 0.994800
vt 0.667000 0.996300
vt 0.666200 0.989900
vt 0.673300 0.984400
vt 0.647900 0.996400
vt 0.652600 0.987700
vt 0.662500 0.991200
vt 0.665600 0.983000
vt 0.663500 0.987200
vt 0.662500 0.987300
vt 0.660200 0.982900
vt 0.549600 0.993600
vt 0.535500 0.990400
vt 0.539500 0.988700
vt 0.548700 0.992500
vt 0.567600 0.989500
vt 0.557400 0.990500
vt 0.563200 0.984000
vt 0.545100 0.984600
vt 0.552100 0.989100
vt 0.557800 0.982000
vt 0.555600 0.985000
vt 0.553900 0.985600
vt 0.552700 0.981600
vt 0.771300 0.988900
vt 0.785300 0.985100
vt 0.790200 0.988100
vt 0.770200 0.989800
vt 0.769300 0.983500
vt 0.776300 0.978000
vt 0.751400 0.990100
vt 0.755900 0.981400
vt 0.765700 0.984800
vt 0.768700 0.976700
vt 0.766700 0.980900
vt 0.765600 0.981000
vt 0.763400 0.976700
vn -0.0000 -0.5329 -0.8462
vn 0.0000 -0.3827 -0.9239
vn 0.6533 -0.3827 -0.6533
vn 0.5983 -0.5329 -0.5983
vn -0.5983 -0.5329 -0.5983
vn -0.6533 -0.3827 -0.6533
vn -0.8462 -0.5329 -0.0000
vn -0.9239 -0.3827 -0.0000
vn -0.5983 -0.5329 0.5983
vn -0.6533 -0.3827 0.6533
vn -0.0000 -0.5329 0.8462
vn -0.0000 -0.3827 0.9239
vn 0.5983 -0.5329 0.5983
vn 0.6533 -0.3827 0.6533
vn 0.8462 -0.5329 0.0000
vn 0.9239 -0.3827 0.0000
vn 0.5984 -0.5329 -0.5983
vn 0.0000 -1.0000 -0.0000
vn -0.0000 0.0000 -1.0000
vn 0.7071 -0.0000 -0.7071
vn -0.7071 0.0000 -0.7071
vn -1.0000 0.0000 0.0000
vn -0.7071 0.0000 0.7071
vn 0.0000 0.0000 1.0000
vn 0.7071 0.0000 0.7071
vn 1.0000 0.0000 -0.0000
vn -0.7081 0.7060 0.0163
vn -0.8429 0.5379 0.0135
vn 0.8382 0.5452 0.0121
vn 0.7074 0.7067 0.0147
vn -0.9998 0.0029 0.0180
vn -1.0000 -0.0005 0.0082
vn -0.8429 0.5379 0.0134
vn -0.8505 -0.5247 -0.0373
vn -0.7128 -0.7013 -0.0034
vn 0.6849 -0.7286 -0.0093
vn 0.8002 -0.5976 -0.0499
vn 0.9999 0.0053 0.0134
vn 1.0000 -0.0015 0.0036
vn -0.6262 0.7796 0.0092
vn 0.6262 0.7796 0.0092
vn -0.9999 -0.0000 0.0147
vn -0.6262 -0.7796 0.0092
vn 0.6262 -0.7796 0.0092
vn 0.9999 -0.0000 0.0146
vn -0.7081 0.7059 0.0163
vn 0.8382 0.5452 0.0120
vn 0.4891 0.7060 -0.5122
vn 0.5866 0.5379 -0.6055
vn -0.6012 0.5452 0.5842
vn -0.5106 0.7067 0.4898
vn 0.6943 0.0029 -0.7197
vn 0.7013 -0.0005 -0.7129
vn 0.6278 -0.5247 -0.5750
vn 0.5064 -0.7013 -0.5017
vn -0.4778 -0.7286 0.4908
vn -0.5305 -0.5976 0.6012
vn -0.7165 0.0053 0.6976
vn -0.7096 -0.0015 0.7046
vn 0.4363 0.7796 -0.4493
vn -0.4493 0.7796 0.4363
vn 0.6967 -0.0000 -0.7174
vn 0.4363 -0.7796 -0.4493
vn -0.4493 -0.7796 0.4363
vn -0.7174 -0.0000 0.6967
vn 0.7069 -0.0017 -0.7073
vn 0.7040 0.0958 -0.7038
vn -0.0014 1.0000 -0.0014
vn -0.7074 -0.0028 0.7068
vn -0.6962 0.1726 0.6968
vn -0.0083 -0.9999 -0.0083
vn 0.7032 -0.0959 -0.7045
vn -0.6937 -0.2067 0.6900
vn 0.5122 0.7060 0.4891
vn 0.6055 0.5379 0.5866
vn -0.5842 0.5452 -0.6012
vn -0.4898 0.7067 -0.5106
vn 0.7197 0.0029 0.6943
vn 0.7129 -0.0005 0.7013
vn 0.5750 -0.5247 0.6278
vn 0.5017 -0.7013 0.5064
vn -0.4908 -0.7286 -0.4778
vn -0.6012 -0.5976 -0.5305
vn -0.6976 0.0053 -0.7165
vn -0.7046 -0.0015 -0.7096
vn 0.4493 0.7796 0.4363
vn -0.4363 0.7796 -0.4493
vn 0.7174 -0.0000 0.6967
vn 0.4493 -0.7796 0.4363
vn -0.4363 -0.7796 -0.4493
vn -0.6967 -0.0000 -0.7174
vn 0.7073 -0.0017 0.7069
vn 0.7038 0.0958 0.7040
vn 0.0014 1.0000 -0.0014
vn -0.7068 -0.0028 -0.7074
vn -0.6968 0.1726 -0.6962
vn 0.0083 -0.9999 -0.0083
vn 0.7045 -0.0959 0.7032
vn -0.6900 -0.2067 -0.6937
vn -0.0000 1.0000 0.0018
vn -0.0001 1.0000 0.0023
vn 0.0000 -0.9992 0.0407
vn -0.0000 -0.9999 0.0118
vn -1.0000 -0.0017 0.0003
vn -0.9962 0.0873 -0.0007
vn -0.9962 0.0874 -0.0007
vn -0.9954 0.0958 -0.0001
vn 0.9874 0.1582 -0.0014
vn 1.0000 -0.0028 0.0004
vn 0.9850 0.1726 -0.0004
vn 0.9872 0.1592 -0.0014
vn -0.9962 -0.0874 0.0026
vn -0.9954 -0.0959 0.0009
vn -0.9962 -0.0873 0.0026
vn 0.9784 -0.2067 0.0026
vn 0.9826 -0.1859 0.0056
vn 0.9823 -0.1872 0.0056
vn -0.0015 1.0000 -0.0017
vn -0.0016 1.0000 -0.0016
vn -0.0288 -0.9992 -0.0288
vn -0.0287 -0.9992 -0.0289
vn 0.7033 0.1123 -0.7020
vn 0.7033 0.1121 -0.7020
vn 0.7025 0.1229 -0.7010
vn 0.7025 0.1233 -0.7010
vn -0.6893 0.2146 0.6919
vn -0.6919 0.1982 0.6943
vn -0.6916 0.1998 0.6941
vn -0.6889 0.2172 0.6915
vn 0.6991 -0.1230 -0.7043
vn 0.7003 -0.1123 -0.7050
vn 0.7003 -0.1122 -0.7050
vn -0.6910 -0.2434 0.6806
vn -0.6913 -0.2413 0.6810
vn -0.6875 -0.2650 0.6762
vn -0.6868 -0.2687 0.6753
vn 0.0015 1.0000 -0.0016
vn 0.0015 1.0000 -0.0017
vn 0.0289 -0.9992 -0.0287
vn 0.0289 -0.9992 -0.0288
vn 0.7018 0.1141 0.7032
vn 0.7018 0.1140 0.7032
vn 0.7010 0.1235 0.7024
vn 0.7009 0.1238 0.7024
vn -0.6918 0.2157 -0.6891
vn -0.6939 0.2010 -0.6914
vn -0.6937 0.2027 -0.6912
vn -0.6914 0.2181 -0.6888
vn 0.7043 -0.1236 0.6991
vn 0.7049 -0.1141 0.7001
vn 0.7049 -0.1139 0.7001
vn -0.6798 -0.2475 -0.6904
vn -0.6802 -0.2453 -0.6907
vn -0.6758 -0.2665 -0.6872
vn -0.6751 -0.2699 -0.6866
vn 0.7049 0.0878 -0.7038
vn 0.7049 0.0879 -0.7038
vn 0.7025 -0.0879 -0.7062
vn 0.7025 -0.0878 -0.7062
vn -0.6986 -0.1869 0.6906
vn -0.6984 -0.1884 0.6904
vn -0.6971 0.1589 0.6991
vn -0.6970 0.1601 0.6990
vn -0.0015 1.0000 -0.0016
vn 0.7038 0.0881 0.7049
vn 0.7038 0.0882 0.7049
vn 0.7062 -0.0882 0.7025
vn 0.7062 -0.0881 0.7025
vn 0.0288 -0.9992 -0.0289
vn -0.6905 -0.1876 -0.6985
vn -0.6903 -0.1891 -0.6984
vn -0.6990 0.1594 -0.6971
vn -0.6989 0.1606 -0.6969
vn 0.0016 1.0000 -0.0016
vn 0.9770 0.2131 -0.0018
vn 0.9802 0.1981 -0.0017
vn 0.9799 0.1996 -0.0017
vn 0.9765 0.2157 -0.0019
vn 0.9700 -0.2431 0.0073
vn 0.9704 -0.2413 0.0073
vn 0.9649 -0.2627 0.0079
vn 0.9638 -0.2665 0.0080
vn -0.9925 -0.1220 0.0037
vn -0.9937 -0.1122 0.0034
vn -0.9937 -0.1120 0.0034
vn -0.9937 0.1122 -0.0010
vn -0.9937 0.1121 -0.0010
vn -0.9925 0.1219 -0.0010
vn -0.9925 0.1222 -0.0010
vn -0.0000 1.0000 0.0022
vn 0.0000 1.0000 0.0019
vn 0.0224 0.9025 0.4301
vn 0.9094 0.1863 0.3720
vn 0.8260 0.1691 0.5378
vn 0.8516 0.0111 0.5240
vn 0.9263 0.0092 0.3767
vn -0.9163 0.1451 0.3733
vn -0.9274 0.0063 0.3741
vn -0.9274 0.0002 0.3740
vn 0.9035 -0.2247 0.3650
vn 0.8071 -0.2002 0.5554
vn 0.0279 -0.8952 0.4448
vn -0.9188 -0.1454 0.3669
vn 0.8259 0.1690 0.5378
vn -0.0035 -0.0020 1.0000
vn -0.0035 -0.0001 1.0000
vn 0.8516 0.0111 0.5241
vn -0.0035 0.0029 1.0000
vn 0.8070 -0.2002 0.5556
vn -0.3199 0.9025 -0.2884
vn -0.9058 0.1864 0.3804
vn -0.9643 0.1691 0.2038
vn -0.9727 0.0111 0.2317
vn -0.9214 0.0092 0.3886
vn 0.3842 0.1452 -0.9117
vn 0.3912 0.0063 -0.9203
vn 0.3914 0.0002 -0.9202
vn -0.8970 -0.2246 0.3807
vn -0.9635 -0.2002 0.1779
vn -0.3340 -0.8952 -0.2950
vn 0.3905 -0.1456 -0.9090
vn -0.7048 -0.0022 -0.7094
vn -0.7047 0.0001 -0.7095
vn -0.7047 0.0000 -0.7095
vn -0.7047 0.0028 -0.7095
vn 0.2884 0.9025 -0.3200
vn -0.3801 0.1864 -0.9060
vn -0.2038 0.1691 -0.9643
vn -0.2317 0.0111 -0.9727
vn -0.3886 0.0092 -0.9214
vn 0.9118 0.1452 0.3842
vn 0.9203 0.0063 0.3912
vn 0.9202 0.0002 0.3914
vn -0.3809 -0.2247 -0.8969
vn -0.1779 -0.2002 -0.9635
vn 0.2949 -0.8951 -0.3343
vn 0.9090 -0.1456 0.3904
vn 0.7094 -0.0019 -0.7048
vn 0.7095 0.0000 -0.7047
vn 0.7095 0.0028 -0.7047
vn -0.0017 1.0000 -0.0015
vn -0.7086 -0.0003 0.7056
vn -0.6951 0.1753 0.6972
vn -0.6959 -0.2091 0.6870
vn 0.7018 -0.0975 -0.7057
vn 0.7064 0.0010 -0.7078
vn 0.7043 0.0974 -0.7032
vn -0.7056 -0.0003 -0.7086
vn -0.6972 0.1753 -0.6951
vn -0.6870 -0.2091 -0.6959
vn 0.0288 -0.9992 -0.0288
vn 0.7057 -0.0975 0.7018
vn 0.7078 0.0010 0.7064
vn 0.7032 0.0975 0.7043
vn 1.0000 -0.0003 0.0021
vn 0.9845 0.1753 -0.0015
vn 0.9779 -0.2091 0.0063
vn -0.9952 -0.0974 0.0027
vn -1.0000 0.0010 0.0010
vn -0.9952 0.0975 -0.0008
vn 0.0001 1.0000 0.0022
usemtl _SM_WindTurbine_02lambert4SG
s off
f 1/1/1 2/2/2 3/3/3 4/4/4
f 5/5/5 6/6/6 2/2/2 1/1/1
f 7/7/7 8/8/8 6/6/6 5/5/5
f 9/9/9 10/10/10 8/8/8 7/7/7
f 11/11/11 12/12/12 10/10/10 9/9/9
f 13/13/13 14/14/14 12/12/12 11/11/11
f 15/15/15 16/16/16 14/14/14 13/13/13
f 4/4/4 3/3/3 16/16/16 15/15/15
f 1/1/1 4/4/17 17/17/18
f 5/5/5 1/1/1 17/17/18
f 7/7/7 5/5/5 17/17/18
f 9/9/9 7/7/7 17/17/18
f 11/11/11 9/9/9 17/17/18
f 13/13/13 11/11/11 17/17/18
f 15/15/15 13/13/13 17/17/18
f 4/4/4 15/15/15 17/17/18
f 2/2/19 18/18/19 19/19/20 3/3/20
f 6/6/21 20/20/21 18/18/19 2/2/19
f 8/8/22 21/21/22 20/20/21 6/6/21
f 10/10/23 22/22/23 21/21/22 8/8/22
f 12/12/24 23/23/24 22/22/23 10/10/23
f 14/14/25 24/24/25 23/23/24 12/12/24
f 16/16/26 25/25/26 24/24/25 14/14/25
f 3/3/20 19/19/20 25/25/26 16/16/26
usemtl _SM_WindTurbine_02lambert2SG
f 26/26/27 27/27/28 28/28/29 29/29/30
f 30/30/31 31/31/32 27/32/33 26/33/27
f 32/34/34 33/35/35 34/36/36 35/37/37
f 34/36/36 36/38/38 37/39/39 35/37/37
f 38/40/40 26/26/27 29/29/30 39/41/41
f 40/42/42 41/43/43 33/35/35 30/30/31
f 33/35/35 41/43/43 42/44/44 34/36/36
f 43/45/45 36/38/38 34/36/36 42/44/44
f 40/42/42 30/30/31 26/33/46 38/46/40
f 43/45/45 39/41/41 29/29/30 36/38/38
f 37/39/39 36/38/38 29/29/30 28/28/47
f 31/31/32 30/30/31 33/35/35 32/34/34
f 68/47/48 69/48/49 70/49/50 71/50/51
f 72/51/52 73/52/53 69/48/49 68/47/48
f 74/53/54 75/54/55 76/55/56 77/56/57
f 76/55/56 78/57/58 79/58/59 77/56/57
f 80/59/60 68/47/48 71/50/51 81/60/61
f 82/61/62 83/62/63 75/54/55 72/51/52
f 75/54/55 83/62/63 84/63/64 76/55/56
f 85/64/65 78/57/58 76/55/56 84/63/64
f 73/52/53 86/65/66 87/66/67 69/48/49
f 69/48/49 87/66/68 88/67/68 70/49/50
f 89/68/69 79/58/59 70/69/50 88/70/70
f 90/71/71 74/53/54 77/56/57 91/72/71
f 82/61/62 72/51/52 68/47/48 80/59/60
f 85/64/65 81/73/61 71/74/51 78/57/58
f 86/65/66 73/52/53 74/53/54 90/71/72
f 77/56/57 79/58/59 89/68/69 91/72/73
f 79/58/59 78/57/58 71/74/51 70/69/50
f 73/52/53 72/51/52 75/54/55 74/53/54
f 116/75/74 117/76/75 118/77/76 119/78/77
f 120/79/78 121/80/79 117/81/75 116/82/74
f 122/83/80 123/84/81 124/85/82 125/86/83
f 124/85/82 126/87/84 127/88/85 125/86/83
f 128/89/86 116/75/74 119/78/77 129/90/87
f 130/91/88 131/92/89 123/84/81 120/79/78
f 123/84/81 131/92/89 132/93/90 124/85/82
f 133/94/91 126/87/84 124/85/82 132/93/90
f 121/80/79 134/95/92 135/96/93 117/81/75
f 117/76/75 135/97/94 136/98/94 118/77/76
f 137/99/95 127/88/85 118/77/76 136/98/96
f 138/100/97 122/83/80 125/86/83 139/101/97
f 130/91/88 120/79/78 116/82/74 128/102/86
f 133/94/91 129/90/87 119/78/77 126/87/84
f 134/95/92 121/80/79 122/83/80 138/100/98
f 125/86/83 127/88/85 137/99/95 139/101/99
f 127/88/85 126/87/84 119/78/77 118/77/76
f 121/80/79 120/79/78 123/84/81 122/83/80
s 1
f 45/103/100 62/104/101 63/105/101 46/106/100
f 64/107/102 48/108/103 49/109/103 65/110/102
f 44/111/104 66/112/105 62/113/106 45/114/107
f 67/115/108 47/116/109 46/106/110 63/105/111
f 66/112/112 44/111/104 48/108/113 64/107/114
f 49/109/115 47/116/109 67/115/116 65/110/117
f 104/117/118 105/118/119 106/119/119 107/120/118
f 108/121/120 109/122/120 110/123/121 111/124/121
f 104/117/122 112/125/123 113/126/124 105/118/125
f 114/127/126 115/128/127 107/129/128 106/130/129
f 113/126/130 112/125/131 110/123/132 109/122/130
f 111/124/133 115/128/134 114/127/135 108/121/136
f 152/131/137 153/132/138 154/133/138 155/134/137
f 156/135/139 157/136/140 158/137/140 159/138/140
f 152/139/141 160/140/142 161/141/143 153/142/144
f 162/143/145 163/144/146 155/134/147 154/133/148
f 161/141/149 160/140/150 158/137/151 157/136/149
f 159/138/152 163/144/153 162/143/154 156/135/155
f 86/65/66 165/145/156 164/146/157 87/66/67
f 165/145/158 86/65/66 90/71/72 166/147/159
f 166/147/121 90/71/71 91/72/71 167/148/121
f 91/72/73 89/68/69 168/149/160 167/148/161
f 168/149/162 89/68/69 88/70/70 169/150/163
f 87/66/119 164/146/164 169/151/164 88/67/119
f 134/95/92 171/152/165 170/153/166 135/96/93
f 171/152/167 134/95/92 138/100/98 172/154/168
f 172/154/169 138/100/97 139/101/97 173/155/169
f 139/101/99 137/99/95 174/156/170 173/155/171
f 174/156/172 137/99/95 136/98/96 175/157/173
f 135/97/174 170/158/137 175/157/137 136/98/174
f 182/159/175 178/160/176 177/161/177 183/162/178
f 179/163/179 178/160/180 182/159/181 184/164/182
f 184/164/102 185/165/102 180/166/102 179/163/102
f 186/167/183 181/168/184 180/166/185 185/165/183
f 176/169/186 181/168/187 186/167/188 187/170/189
f 176/171/101 187/172/190 183/162/190 177/161/101
usemtl _SM_WindTurbine_02lambert3SG
s off
f 31/31/32 44/111/104 45/114/107 27/32/33
f 27/27/33 45/103/191 46/106/191 28/28/47
f 47/116/109 37/39/39 28/28/47 46/106/110
f 48/108/103 32/34/34 35/37/37 49/109/103
f 44/111/104 31/31/32 32/34/34 48/108/113
f 35/37/37 37/39/39 47/116/109 49/109/115
f 50/173/192 51/174/192 52/175/192 53/176/192
f 51/174/193 50/173/194 54/177/195 55/178/196
f 53/176/197 52/179/197 56/180/198 57/181/199
f 58/182/200 55/178/196 54/177/195 59/183/201
f 59/183/202 60/184/202 61/185/202 58/182/202
f 60/184/203 57/181/199 56/180/198 61/185/203
f 50/173/204 53/176/205 57/181/206 54/177/207
f 54/177/207 57/181/206 60/184/208 59/183/209
f 92/186/210 93/187/210 94/188/210 95/189/210
f 93/190/211 92/186/212 96/191/213 97/192/214
f 95/189/215 94/188/215 98/193/216 99/194/217
f 100/195/218 97/192/214 96/191/213 101/196/219
f 101/196/220 102/197/220 103/198/220 100/195/220
f 102/197/221 99/194/217 98/193/216 103/198/221
f 92/186/212 95/189/222 99/194/223 96/191/213
f 96/191/213 99/194/224 102/197/225 101/196/219
f 140/199/226 141/200/226 142/201/226 143/202/226
f 141/200/227 140/199/228 144/203/229 145/204/230
f 143/202/231 142/205/231 146/206/232 147/207/233
f 148/208/234 145/204/230 144/203/229 149/209/235
f 149/209/236 150/210/236 151/211/236 148/208/236
f 150/210/237 147/207/233 146/206/232 151/211/237
f 140/199/228 143/202/238 147/207/239 144/203/229
f 144/203/229 147/207/239 150/210/240 149/209/235
s 1
f 105/118/119 94/188/241 93/187/241 106/119/119
f 97/192/242 114/127/126 106/130/129 93/190/243
f 108/121/136 114/127/135 97/192/242 100/195/244
f 100/195/120 103/198/120 109/122/120 108/121/120
f 113/126/130 109/122/130 103/198/245 98/193/246
f 105/118/125 113/126/124 98/193/246 94/188/247
f 164/146/157 165/145/156 112/125/123 104/117/122
f 110/123/132 112/125/131 165/145/158 166/147/159
f 111/124/121 110/123/121 166/147/121 167/148/121
f 167/148/161 168/149/160 115/128/134 111/124/133
f 115/128/127 168/149/162 169/150/163 107/129/128
f 164/146/164 104/117/118 107/120/118 169/151/164
f 153/132/138 142/201/138 141/200/138 154/133/138
f 145/204/248 162/143/145 154/133/148 141/200/249
f 156/135/155 162/143/154 145/204/248 148/208/250
f 148/208/251 151/211/251 157/136/140 156/135/139
f 161/141/149 157/136/149 151/211/252 146/206/253
f 153/142/144 161/141/143 146/206/253 142/205/254
f 170/153/166 171/152/165 160/140/142 152/139/141
f 158/137/151 160/140/150 171/152/167 172/154/168
f 159/138/140 158/137/140 172/154/169 173/155/169
f 173/155/171 174/156/170 163/144/153 159/138/152
f 163/144/146 174/156/172 175/157/173 155/134/147
f 170/158/137 152/131/137 155/134/137 175/157/137
f 62/104/101 176/171/101 177/161/101 63/105/101
f 178/160/176 67/115/108 63/105/111 177/161/177
f 65/110/117 67/115/116 178/160/180 179/163/179
f 179/163/102 180/166/102 64/107/102 65/110/102
f 180/166/185 181/168/184 66/112/112 64/107/114
f 62/113/106 66/112/105 181/168/187 176/169/186
f 55/178/255 182/159/175 183/162/178 51/174/256
f 184/164/182 182/159/181 55/178/255 58/182/257
f 58/182/102 61/185/102 185/165/102 184/164/102
f 186/167/183 185/165/183 61/185/258 56/180/259
f 187/170/189 186/167/188 56/180/259 52/179/260
f 187/172/190 52/175/261 51/174/261 183/162/190
